PathFileType	4	(X/Y/Z)	/Users/itak/Documents/Research/Walk-IL/dataset/trc/00417_00012.trc
DataRate	CameraRate	NumFrames	NumMarkers	Units	OrigDataRate	OrigDataStartFrame	OrigNumFrames
100.000000	100.000000	4	54	mm	100.000000	367	735
Frame#	Time	RPSI			LPSI			L3			STRN			T10			C7			CLAV			RBAK			LBAK			LSHO			LUPA			LAEL			LAOL			LWTS			LWPS			LFRA			LIFD			LHPS			LHTS			RSHO			RUPA			RAEL			RAOL			RWTS			RWPS			RFRA			RIFD			RHPS			RBHD			LFHD			RFHD			LBHD			LHIP			RHIP			RASI			LASI			LKNE			LTHI			LANK			LTIP			LTOE			LMT1			LMT5			LHEE			RKNE			RTHI			RANK			RTIP			RTOE			RMT1			RMT5			RHEE			RHTS			*53			
		X1	Y1	Z1	X2	Y2	Z2	X3	Y3	Z3	X4	Y4	Z4	X5	Y5	Z5	X6	Y6	Z6	X7	Y7	Z7	X8	Y8	Z8	X9	Y9	Z9	X10	Y10	Z10	X11	Y11	Z11	X12	Y12	Z12	X13	Y13	Z13	X14	Y14	Z14	X15	Y15	Z15	X16	Y16	Z16	X17	Y17	Z17	X18	Y18	Z18	X19	Y19	Z19	X20	Y20	Z20	X21	Y21	Z21	X22	Y22	Z22	X23	Y23	Z23	X24	Y24	Z24	X25	Y25	Z25	X26	Y26	Z26	X27	Y27	Z27	X28	Y28	Z28	X29	Y29	Z29	X30	Y30	Z30	X31	Y31	Z31	X32	Y32	Z32	X33	Y33	Z33	X34	Y34	Z34	X35	Y35	Z35	X36	Y36	Z36	X37	Y37	Z37	X38	Y38	Z38	X39	Y39	Z39	X40	Y40	Z40	X41	Y41	Z41	X42	Y42	Z42	X43	Y43	Z43	X44	Y44	Z44	X45	Y45	Z45	X46	Y46	Z46	X47	Y47	Z47	X48	Y48	Z48	X49	Y49	Z49	X50	Y50	Z50	X51	Y51	Z51	X52	Y52	Z52	X53	Y53	Z53	X54	Y54	Z54	

368	3.67	-1420.43017578125	978.0084838867188	-544.5967407226562	-1442.049438476562	972.7816772460938	-674.5205688476562	-1430.212158203125	1051.54736328125	-615.140625	-1181.359985351562	1195.6025390625	-634.2835083007812	-1435.096557617188	1157.624267578125	-623.484375	-1379.742797851562	1401.403442382812	-644.645751953125	-1228.053833007812	1317.392211914062	-634.5899658203125	-1429.0654296875	1259.072265625	-575.8531494140625	-1392.32958984375	1362.7099609375	-747.747314453125	-1304.473266601562	1374.93115234375	-796.2267456054688	-1329.633544921875	1260.63134765625	-868.1021118164062	-1322.226806640625	1061.902954101562	-891.4765625	-1379.829223632812	1044.960205078125	-831.332763671875	-1218.931274414062	852.6041870117188	-850.0720825195312	-1275.997436523438	831.1254272460938	-902.838623046875	-1304.385009765625	957.4585571289062	-898.9588623046875	-1218.4990234375	670.4105224609375	-838.1770629882812	-1258.951782226562	747.6803588867188	-889.1363525390625	-1203.384887695312	752.0045776367188	-861.9456176757812	-1325.839965820312	1381.271606445312	-485.7602844238281	-1343.94873046875	1320.0888671875	-426.1638488769531	-1350.189575195312	1064.405517578125	-363.2754211425781	-1366.549560546875	1045.56396484375	-455.915771484375	-1221.2490234375	847.2569580078125	-367.4546203613281	-1266.096435546875	840.7420043945312	-307.2984313964844	-1325.269897460938	1000.397033691406	-340.3105163574219	-1217.94384765625	673.9035034179688	-337.9327087402344	-1259.331909179688	754.4490356445312	-297.0890808105469	-1343.893310546875	1589.410278320312	-559.8953857421875	-1178.5947265625	1583.892944335938	-672.086181640625	-1210.130004882812	1587.95166015625	-553.40283203125	-1319.31201171875	1584.32373046875	-720.67236328125	-1374.166259765625	951.910400390625	-799.754150390625	-1319.441528320312	959.33349609375	-444.08837890625	-1202.173217773438	962.6167602539062	-523.1480712890625	-1255.232788085938	942.4179077148438	-780.8140869140625	-1375.045654296875	456.4585876464844	-759.6864624023438	-1366.7529296875	598.6427001953125	-779.296630859375	-1533.925048828125	42.02066421508789	-684.4417724609375	-1456.441284179688	235.9066619873047	-733.2722778320312	-1315.489135742188	45.96246719360352	-629.876708984375	-1393.441650390625	45.25970077514648	-596.8080444335938	-1407.720703125	43.19493103027344	-702.1661987304688	-1569.259765625	41.71362686157227	-625.6865234375	-1113.883544921875	503.9257202148438	-513.2220458984375	-1188.130493164062	751.835205078125	-472.5160522460938	-1198.443359375	86.42900848388672	-538.0396118164062	-1112.193603515625	375.5803527832031	-525.1970825195312	-1029.236694335938	67.88912963867188	-601.532470703125	-1101.20556640625	67.06104278564453	-630.5167236328125	-1118.0068359375	67.77490997314453	-530.8583984375	-1276.69677734375	80.90705871582031	-580.9212036132812	-1205.135620117188	744.922607421875	-335.4454040527344	nan	nan	nan	
369	3.68	-1415.057495117188	976.8319702148438	-544.6672973632812	-1436.98046875	971.7900390625	-674.4718627929688	-1425.010864257812	1050.592651367188	-615.143798828125	-1176.015991210938	1194.320922851562	-634.8069458007812	-1429.816772460938	1156.65087890625	-623.7279052734375	-1374.10693359375	1400.380615234375	-644.87158203125	-1222.5322265625	1316.151733398438	-635.0006713867188	-1423.621826171875	1258.130126953125	-576.0990600585938	-1386.953002929688	1361.694580078125	-747.9559936523438	-1299.179931640625	1373.831787109375	-796.5476684570312	-1324.377807617188	1259.4873046875	-868.3939819335938	-1316.376831054688	1060.843872070312	-891.8910522460938	-1373.871337890625	1043.568115234375	-831.8361206054688	-1208.905151367188	854.2341918945312	-850.9889526367188	-1265.917602539062	831.0664672851562	-903.1279907226562	-1297.098754882812	956.7171630859375	-899.5162353515625	-1203.222900390625	672.35546875	-839.0008544921875	-1246.552124023438	748.2470092773438	-889.511474609375	-1190.543823242188	754.1817016601562	-863.0291748046875	-1320.204345703125	1380.091186523438	-486.0616149902344	-1338.624145507812	1318.973876953125	-426.6033935546875	-1346.87890625	1063.28857421875	-364.1839904785156	-1362.714721679688	1044.706420898438	-456.8772888183594	-1220.686767578125	844.534423828125	-367.2595520019531	-1265.506469726562	838.840576171875	-307.7691955566406	-1322.610961914062	999.119873046875	-341.0299377441406	-1219.382080078125	671.3467407226562	-338.1876220703125	-1259.820678710938	752.4812622070312	-297.5407104492188	-1338.569702148438	1587.967651367188	-560.011962890625	-1173.09130859375	1583.11474609375	-672.0942993164062	-1204.765625	1586.832153320312	-553.4247436523438	-1313.8447265625	1583.25	-720.73486328125	-1369.490600585938	950.9970703125	-799.924560546875	-1313.549682617188	958.1146240234375	-444.4283447265625	-1196.737915039062	961.4466552734375	-523.8848266601562	-1250.538818359375	941.3712158203125	-781.427490234375	-1373.011840820312	455.8380126953125	-760.07373046875	-1363.669555664062	598	-779.6777954101562	-1533.90869140625	42.02854919433594	-684.4685668945312	-1455.70654296875	235.8471527099609	-733.5011596679688	-1315.294799804688	45.87022399902344	-629.9649658203125	-1393.369506835938	45.21615219116211	-596.7437744140625	-1407.74072265625	43.13239288330078	-702.2407836914062	-1569.194458007812	41.82923126220703	-625.7232666015625	-1107.604370117188	503.023193359375	-514.1661376953125	-1182.56201171875	750.9992065429688	-473.1986999511719	-1178.148803710938	82.25272369384766	-542.0582275390625	-1101.899047851562	374.9088439941406	-527.046875	-1008.020568847656	69.83509826660156	-605.90283203125	-1079.68798828125	67.30223083496094	-634.936279296875	-1096.824462890625	66.52541351318359	-535.30029296875	-1255.335205078125	75.40076446533203	-585.8995361328125	-1205.538696289062	742.2342529296875	-335.5917663574219	nan	nan	nan	
370	3.69	-1409.495849609375	975.5178833007812	-544.7251586914062	-1431.714233398438	970.718994140625	-674.4173583984375	-1419.617919921875	1049.5263671875	-615.11083984375	-1170.516845703125	1192.937255859375	-635.2748413085938	-1424.404418945312	1155.56591796875	-623.9041748046875	-1368.337768554688	1399.243896484375	-645.0501708984375	-1216.906005859375	1314.79931640625	-635.3643798828125	-1418.04736328125	1257.087036132812	-576.2877807617188	-1381.447998046875	1360.557861328125	-748.1146850585938	-1293.748291015625	1372.610473632812	-796.8258666992188	-1318.983520507812	1258.207885742188	-868.6285400390625	-1310.292724609375	1059.660400390625	-892.2258911132812	-1367.697509765625	1042.009887695312	-832.2830200195312	-1198.608154296875	855.94677734375	-851.775146484375	-1255.492553710938	831.0560913085938	-903.3424072265625	-1289.547729492188	955.9119873046875	-899.9906005859375	-1187.598876953125	674.489501953125	-839.77392578125	-1233.758544921875	748.930419921875	-889.83544921875	-1177.268432617188	756.5474243164062	-864.0202026367188	-1314.423950195312	1378.808349609375	-486.318115234375	-1333.134521484375	1317.755981445312	-426.9925842285156	-1343.4443359375	1062.083862304688	-365.1174926757812	-1358.740966796875	1043.765991210938	-457.8562316894531	-1219.951416015625	841.7938232421875	-367.280517578125	-1264.864868164062	836.8280029296875	-308.3437194824219	-1319.863159179688	997.7355346679688	-341.8078918457031	-1220.8935546875	668.6570434570312	-338.6383056640625	-1260.289306640625	750.4046630859375	-298.1361389160156	-1333.127807617188	1586.42724609375	-560.1166381835938	-1167.469970703125	1582.2314453125	-672.0856323242188	-1199.270751953125	1585.622680664062	-553.4262084960938	-1308.259643554688	1582.052856445312	-720.7793579101562	-1364.606811523438	950.0479125976562	-800.0828857421875	-1307.46337890625	956.6978149414062	-444.7379150390625	-1191.0791015625	960.1366577148438	-524.5615234375	-1245.648803710938	940.2598876953125	-782.01123046875	-1370.854248046875	455.186279296875	-760.4827270507812	-1360.436401367188	597.32421875	-780.0845336914062	-1533.8916015625	42.04471969604492	-684.5049438476562	-1454.902221679688	235.7624969482422	-733.7550048828125	-1315.151611328125	45.76116561889648	-630.0589599609375	-1393.296264648438	45.26621627807617	-596.678955078125	-1407.727783203125	42.99711990356445	-702.3070678710938	-1569.1083984375	41.94844818115234	-625.7686767578125	-1101.418090820312	501.8623962402344	-514.9916381835938	-1176.833374023438	749.9730224609375	-473.8178100585938	-1157.588989257812	78.35488891601562	-546.08544921875	-1091.631958007812	374.1285705566406	-528.8358764648438	-986.9031372070312	72.13245391845703	-610.5112915039062	-1058.252563476562	67.89149475097656	-639.4778442382812	-1075.406494140625	65.53739166259766	-539.92724609375	-1233.4326171875	69.64150238037109	-591.4810180664062	-1205.989868164062	739.4113159179688	-335.9162292480469	nan	nan	nan	
371	3.7	-1403.734619140625	974.0751342773438	-544.765625	-1426.240966796875	969.575927734375	-674.3575439453125	-1414.01806640625	1048.343383789062	-615.0413818359375	-1164.8671875	1191.451293945312	-635.6869506835938	-1418.843994140625	1154.366455078125	-624.0084228515625	-1362.439086914062	1397.990356445312	-645.18212890625	-1211.16748046875	1313.342529296875	-635.6809692382812	-1412.333740234375	1255.937377929688	-576.420166015625	-1375.807861328125	1359.299682617188	-748.2237548828125	-1288.171630859375	1371.27294921875	-797.0575561523438	-1313.448364257812	1256.801879882812	-868.8080444335938	-1303.977661132812	1058.359130859375	-892.4910888671875	-1361.309936523438	1040.299926757812	-832.6688232421875	-1188.03173828125	857.753173828125	-852.4127197265625	-1244.731567382812	831.1146850585938	-903.4843139648438	-1281.733276367188	955.0560913085938	-900.3782348632812	-1171.713256835938	676.7987670898438	-840.4718627929688	-1220.59033203125	749.7410278320312	-890.1007080078125	-1163.653442382812	759.0935668945312	-864.8642578125	-1308.497802734375	1377.42529296875	-486.5268249511719	-1327.479125976562	1316.438842773438	-427.3271179199219	-1339.884033203125	1060.794677734375	-366.0738525390625	-1354.643310546875	1042.748168945312	-458.8582153320312	-1219.024169921875	839.0435791015625	-367.5134582519531	-1264.15576171875	834.7130126953125	-309.0216979980469	-1317.028686523438	996.2488403320312	-342.6453857421875	-1222.476928710938	665.833984375	-339.2772521972656	-1260.706665039062	748.2293701171875	-298.8723754882812	-1327.55126953125	1584.785400390625	-560.2009887695312	-1161.735473632812	1581.235107421875	-672.0593872070312	-1193.6396484375	1584.327270507812	-553.4060668945312	-1302.553833007812	1580.728515625	-720.8078002929688	-1359.513916015625	949.0609130859375	-800.2312622070312	-1301.203125	955.0931396484375	-445.0198364257812	-1185.184814453125	958.6846313476562	-525.1805419921875	-1240.552856445312	939.0773315429688	-782.5638427734375	-1368.573852539062	454.5054321289062	-760.9104614257812	-1357.0712890625	596.6170654296875	-780.5158081054688	-1533.87158203125	42.07590866088867	-684.5491333007812	-1454.017456054688	235.6474151611328	-734.029296875	-1315.084594726562	45.61146926879883	-630.1640625	-1393.214233398438	45.38006973266602	-596.6328125	-1407.685424804688	42.80110168457031	-702.3678588867188	-1569.002685546875	42.07552337646484	-625.8207397460938	-1095.310913085938	500.4713134765625	-515.720458984375	-1170.981201171875	748.7691650390625	-474.3946533203125	-1136.814208984375	74.86769866943359	-550.1345825195312	-1081.414672851562	373.2711791992188	-530.5508422851562	-965.966064453125	74.79578399658203	-615.2618408203125	-1036.980102539062	68.80916595458984	-644.0880737304688	-1053.857299804688	64.86658477783203	-544.66259765625	-1211.216430664062	63.88304138183594	-597.3615112304688	-1206.460327148438	736.468017578125	-336.423828125	nan	nan	nan	
